<mxfile host="65bd71144e" modified="2022-06-16T15:40:59.882Z" agent="5.0 (Windows NT 10.0; Win64; x64) AppleWebKit/537.36 (KHTML, like Gecko) Code/1.67.2 Chrome/98.0.4758.141 Electron/17.4.1 Safari/537.36" etag="ml5gjgR4LqD0JgdyIVhk" version="20.0.1" type="embed">
    <diagram id="j2bOcpKi6gkglbLQkNI5" name="Page-1">
        <mxGraphModel dx="1444" dy="790" grid="1" gridSize="10" guides="1" tooltips="1" connect="1" arrows="1" fold="1" page="1" pageScale="1" pageWidth="850" pageHeight="1100" math="0" shadow="0">
            <root>
                <mxCell id="0"/>
                <mxCell id="1" parent="0"/>
                <mxCell id="2" value="Binary program" style="rounded=1;whiteSpace=wrap;html=1;" parent="1" vertex="1">
                    <mxGeometry x="190" y="25" width="120" height="60" as="geometry"/>
                </mxCell>
                <mxCell id="3" value="Static Metadata&lt;br&gt;&lt;br&gt;- instr types" style="rounded=1;whiteSpace=wrap;html=1;" parent="1" vertex="1">
                    <mxGeometry x="190" y="110" width="120" height="60" as="geometry"/>
                </mxCell>
                <mxCell id="4" value="Dynamic Metadata&lt;br&gt;&lt;br&gt;- expected instr durations&lt;br&gt;- number of runs&lt;br&gt;- deadlines" style="rounded=1;whiteSpace=wrap;html=1;" parent="1" vertex="1">
                    <mxGeometry x="160" y="330" width="150" height="90" as="geometry"/>
                </mxCell>
                <mxCell id="5" value="Runtime Interface&lt;br&gt;&lt;br&gt;- node IDs&lt;br&gt;- (EPR) socket IDs&lt;br&gt;- generic latency/error info" style="rounded=1;whiteSpace=wrap;html=1;horizontal=1;verticalAlign=top;" parent="1" vertex="1">
                    <mxGeometry x="360" y="235" width="260" height="195" as="geometry"/>
                </mxCell>
                <mxCell id="6" value="Setup/Config&lt;br&gt;(real system -&amp;gt; given setup,&lt;br&gt;simulation -&amp;gt; config)&lt;br&gt;&lt;br&gt;- nodes&lt;br&gt;- links&lt;br&gt;- hardware type&lt;br&gt;- noise&lt;br&gt;- latencies" style="rounded=1;whiteSpace=wrap;html=1;" parent="1" vertex="1">
                    <mxGeometry x="650" y="210" width="160" height="190" as="geometry"/>
                </mxCell>
                <mxCell id="7" value="" style="endArrow=none;dashed=1;html=1;strokeWidth=2;" parent="1" edge="1">
                    <mxGeometry width="50" height="50" relative="1" as="geometry">
                        <mxPoint x="20" y="440" as="sourcePoint"/>
                        <mxPoint x="850" y="440" as="targetPoint"/>
                    </mxGeometry>
                </mxCell>
                <mxCell id="8" value="Offline" style="text;html=1;strokeColor=none;fillColor=none;align=center;verticalAlign=middle;whiteSpace=wrap;rounded=0;" parent="1" vertex="1">
                    <mxGeometry x="30" y="55" width="60" height="30" as="geometry"/>
                </mxCell>
                <mxCell id="9" value="Runtime" style="text;html=1;strokeColor=none;fillColor=none;align=center;verticalAlign=middle;whiteSpace=wrap;rounded=0;" parent="1" vertex="1">
                    <mxGeometry x="30" y="480" width="60" height="30" as="geometry"/>
                </mxCell>
                <mxCell id="10" value="Online" style="text;html=1;strokeColor=none;fillColor=none;align=center;verticalAlign=middle;whiteSpace=wrap;rounded=0;" parent="1" vertex="1">
                    <mxGeometry x="30" y="265" width="60" height="30" as="geometry"/>
                </mxCell>
                <mxCell id="11" value="Binary program" style="rounded=1;whiteSpace=wrap;html=1;" parent="1" vertex="1">
                    <mxGeometry x="160" y="235" width="120" height="60" as="geometry"/>
                </mxCell>
                <mxCell id="12" value="Process" style="rounded=1;whiteSpace=wrap;html=1;" parent="1" vertex="1">
                    <mxGeometry x="160" y="490" width="120" height="60" as="geometry"/>
                </mxCell>
                <mxCell id="13" value="Runtime&lt;br&gt;&lt;br&gt;- (EPR) Sockets&lt;br&gt;- Scheduler" style="rounded=1;whiteSpace=wrap;html=1;" parent="1" vertex="1">
                    <mxGeometry x="380" y="480" width="180" height="100" as="geometry"/>
                </mxCell>
                <mxCell id="14" value="(Simulated) hardware&lt;br&gt;&lt;br&gt;- host/qnodeos&lt;br&gt;- classical links&lt;br&gt;- quantum links" style="rounded=1;whiteSpace=wrap;html=1;" parent="1" vertex="1">
                    <mxGeometry x="640" y="470" width="150" height="130" as="geometry"/>
                </mxCell>
                <mxCell id="15" value="HW details needed for compiler" style="rounded=1;whiteSpace=wrap;html=1;" parent="1" vertex="1">
                    <mxGeometry x="655" y="25" width="120" height="60" as="geometry"/>
                </mxCell>
                <mxCell id="16" value="" style="endArrow=none;dashed=1;html=1;strokeWidth=2;" parent="1" edge="1">
                    <mxGeometry width="50" height="50" relative="1" as="geometry">
                        <mxPoint x="10" y="180" as="sourcePoint"/>
                        <mxPoint x="840" y="180" as="targetPoint"/>
                    </mxGeometry>
                </mxCell>
                <mxCell id="18" value="Global" style="rounded=1;whiteSpace=wrap;html=1;" parent="1" vertex="1">
                    <mxGeometry x="510" y="340" width="90" height="50" as="geometry"/>
                </mxCell>
                <mxCell id="19" value="Per node" style="rounded=1;whiteSpace=wrap;html=1;" parent="1" vertex="1">
                    <mxGeometry x="380" y="340" width="90" height="50" as="geometry"/>
                </mxCell>
            </root>
        </mxGraphModel>
    </diagram>
</mxfile>